<svg xmlns="http://www.w3.org/2000/svg" viewBox="0 0 144 36"><defs><style>.cls-1{fill:#fff;}</style></defs><title>SMBEAUTY_logo_outlined</title><g id="fond"><rect class="cls-1" width="144" height="36"/></g><g id="Layer_4" data-name="Layer 4"><path d="M21,23.33a2.85,2.85,0,0,1-2.86-2.41l1-.24a1.92,1.92,0,0,0,3.84-.17c0-.76-.48-1.3-1.59-1.78l-.89-.38A2.57,2.57,0,0,1,18.55,16a2.47,2.47,0,0,1,2.64-2.37A2.59,2.59,0,0,1,23.54,15l-.77.49a1.68,1.68,0,0,0-1.58-.95A1.55,1.55,0,0,0,19.54,16c0,.62.4,1.08,1.31,1.46l.93.39c1.47.62,2.11,1.41,2.11,2.61A2.86,2.86,0,0,1,21,23.33Z"/><path d="M29.14,14.7v8.44h-1V14.7H25.88v-.91h5.53v.91Z"/><path d="M33.81,23.14V13.79h4.86v.91H34.81v2.86h3.75v.91H34.81v3.76h3.86v.91Z"/><path d="M44.65,23.59l-3.82-9.8H42L44.69,21l2.76-7.21h1.07Z"/><path d="M50.85,23.14V13.79h4.86v.91H51.85v2.86H55.6v.91H51.85v3.76h3.86v.91Z"/><path d="M59.76,15.92v7.22h-1V13.49L66.06,21V13.79h1v9.68Z"/><path d="M85.07,23.14l-1-6.71-3.14,6.92-3.08-6.82-1,6.61h-1l1.64-9.7L81,21.24l3.58-7.8,1.51,9.7Z"/><path d="M91.84,19.1v4h-1v-4L87.8,13.79H89L91.36,18l2.43-4.19h1.13Z"/><path d="M101.51,23.14,98.67,19h-.42v4.1h-1V13.79h1.5a4,4,0,0,1,2.3.5,2.55,2.55,0,0,1,1,2.12A2.46,2.46,0,0,1,99.72,19l3,4.17ZM100.45,15a2.52,2.52,0,0,0-1.5-.34h-.7V18.2H99c1.36,0,2.17-.66,2.17-1.78A1.77,1.77,0,0,0,100.45,15Z"/><path d="M107.73,14.7v8.44h-1V14.7h-2.27v-.91H110v.91Z"/><path d="M118.23,23.14v-4.6H113.4v4.6h-1V13.79h1v3.84h4.83V13.79h1v9.35Z"/><path d="M122.47,23.14V13.79h1v9.35Z"/><path d="M126.71,23.14V13.79h1v8.44h2.69v.91Z"/></g></svg>